<?xml version="1.0" encoding="UTF-8"?>
<svg id="Layer_1" data-name="Layer 1" xmlns="http://www.w3.org/2000/svg" viewBox="0 0 595.28 841.89">
  <defs>
    <style>
      .cls-1 {
        fill: #e5625e;
      }

      .cls-2 {
        fill: #fff;
      }

      .cls-3 {
        fill: #020202;
      }
    </style>
  </defs>
  <rect class="cls-3" width="595.28" height="841.89"/>
  <g>
    <g>
      <path class="cls-2" d="M224.05,629.68c3.13,1.45,6.69,2.18,10.68,2.18s7.2-.68,10.18-2.05c2.98-1.37,5.32-3.28,7.02-5.74,1.7-2.46,2.55-5.35,2.55-8.66v-33.99h-10.28v33.99c0,1.43-.29,2.72-.87,3.86-.58,1.14-1.57,2.06-2.96,2.75-1.39.69-3.27,1.04-5.64,1.04-2.24,0-4.14-.34-5.71-1.01-1.57-.67-2.75-1.62-3.56-2.86-.81-1.23-1.21-2.68-1.21-4.33,0-.81.09-2.05.27-3.73s.44-3.74.77-6.18c.34-2.44.73-5.16,1.17-8.16l-10.14-1.34c-.27,1.79-.55,3.64-.84,5.54-.29,1.9-.55,3.75-.77,5.54-.22,1.79-.4,3.42-.54,4.87s-.2,2.63-.2,3.53c0,3.27.89,6.18,2.69,8.73,1.79,2.55,4.25,4.56,7.39,6.01Z"/>
      <rect class="cls-2" x="229.16" y="569.93" width="10.34" height="8.19"/>
      <rect class="cls-2" x="264.96" y="567.98" width="10.21" height="47.22"/>
      <path class="cls-2" d="M291.46,613.39c2.57,1.21,5.74,1.81,9.5,1.81h5.37v2.02c0,2.19-.67,3.83-2.02,4.9-1.34,1.07-3.54,1.61-6.58,1.61-1.07,0-2.38-.07-3.93-.2-1.55-.13-3.42-.34-5.61-.6l-1.54,8.19c2.01.45,3.94.79,5.78,1.04,1.84.25,3.6.37,5.31.37,3.81,0,7.12-.62,9.94-1.85,2.82-1.23,5.01-3,6.58-5.31,1.57-2.31,2.35-5.03,2.35-8.16v-2.02h29.08v-33.79h-10.28v24.99h-18.81v-24.99h-15.65c-3.76,0-6.93.65-9.5,1.95-2.58,1.3-4.5,3.22-5.78,5.78s-1.91,5.71-1.91,9.47.64,6.81,1.91,9.27c1.28,2.46,3.2,4.3,5.78,5.51ZM294.82,593.14c.51-1.19,1.29-1.97,2.32-2.35s2.31-.57,3.83-.57h5.37v16.19h-5.37c-1.66,0-3-.17-4.03-.5s-1.77-1.06-2.22-2.18c-.45-1.12-.67-2.82-.67-5.1,0-2.46.26-4.29.77-5.47Z"/>
      <rect class="cls-2" x="339.18" y="622.06" width="9.81" height="8.19"/>
      <rect class="cls-2" x="325.95" y="622.06" width="9.81" height="8.19"/>
      <path class="cls-2" d="M380.83,602.04c0-4.84-.78-8.77-2.35-11.79-1.57-3.02-3.85-5.25-6.85-6.68-3-1.43-6.67-2.15-11.02-2.15h-5.44v8.8h5.44c2.51,0,4.48.35,5.91,1.04,1.43.7,2.46,1.89,3.09,3.59.63,1.7.94,4.1.94,7.19v4.37h-17.46v8.8h27.74v-13.16Z"/>
      <path class="cls-2" d="M166.19,716.62c-2.45-2.24-5.49-4.22-9.11-5.95-3.63-1.73-7.89-3.31-12.78-4.75-2.28-.76-4.43-1.43-6.46-2.03-2.03-.59-3.86-1.27-5.51-2.03-1.65-.76-2.93-1.64-3.86-2.66-.93-1.01-1.39-2.23-1.39-3.67,0-1.69.36-3.08,1.08-4.18.71-1.1,1.92-1.92,3.61-2.47,1.69-.55,3.97-.82,6.84-.82,2.61,0,5.84.19,9.68.57,3.84.38,8.88.91,15.13,1.58l2.15-16.2c-6.58-.84-11.88-1.47-15.89-1.9-4.01-.42-7.53-.63-10.57-.63-6.33,0-11.86.93-16.58,2.78-4.73,1.86-8.38,4.62-10.95,8.29-2.58,3.67-3.86,8.33-3.86,13.99,0,3.54.59,6.54,1.77,8.99,1.18,2.45,3.02,4.56,5.51,6.33,2.49,1.77,5.67,3.42,9.56,4.94,3.88,1.52,8.52,3.16,13.92,4.94,4.3,1.26,7.59,2.43,9.87,3.48,2.28,1.06,3.84,2.3,4.68,3.73.84,1.44,1.27,3.46,1.27,6.08,0,4.98-1.22,8.71-3.67,11.2-2.45,2.49-6.29,3.73-11.52,3.73h-35.82c-4.14,0-7.74-.65-10.82-1.96-3.08-1.31-5.46-3.12-7.15-5.44-1.69-2.32-2.53-4.96-2.53-7.91,0-1.69.23-4.49.7-8.42.46-3.92,1.12-8.5,1.96-13.73l-19.11-2.53c-.59,3.71-1.1,7.17-1.52,10.38-.42,3.21-.76,6.03-1.01,8.48-.25,2.45-.38,4.47-.38,6.08,0,4.47,1.01,8.63,3.04,12.47,2.02,3.84,4.83,7.19,8.42,10.06,3.59,2.87,7.8,5.1,12.66,6.71,4.85,1.6,10.1,2.4,15.76,2.4h35.82c7,0,13.08-1.35,18.23-4.05,5.15-2.7,9.16-6.41,12.03-11.14,2.87-4.73,4.3-10.17,4.3-16.33,0-4.05-.63-7.57-1.9-10.57-1.27-2.99-3.12-5.61-5.57-7.85Z"/>
      <rect class="cls-2" x="121.89" y="779.46" width="18.48" height="15.44"/>
      <rect class="cls-2" x="96.95" y="779.46" width="18.48" height="15.44"/>
      <rect class="cls-2" x="255.55" y="748.07" width="18.48" height="15.44"/>
      <rect class="cls-2" x="230.62" y="748.07" width="18.48" height="15.44"/>
      <path class="cls-2" d="M467.57,718.58h-36.98c2.2-2.07,4.22-4.24,6.03-6.52,3.33-4.18,5.89-8.35,7.66-12.53,1.77-4.18,2.66-7.99,2.66-11.45v-7.09c-3.63-2.03-7.57-3.75-11.83-5.19-4.26-1.43-8.48-2.51-12.66-3.23-4.18-.72-8.04-1.08-11.58-1.08s-7.43.36-11.64,1.08c-4.22.72-8.44,1.79-12.66,3.23-4.22,1.44-8.14,3.16-11.77,5.19v7.09c0,3.46.89,7.28,2.66,11.45,1.77,4.18,4.32,8.36,7.66,12.53,1.81,2.27,3.83,4.44,6.03,6.52h-36.85v-14.81c0-8.02-1.29-14.39-3.86-19.11-2.57-4.72-6.41-8.14-11.52-10.25-5.11-2.11-11.54-3.16-19.3-3.16-5.32,0-10.19.38-14.62,1.14-4.43.76-7.66,1.52-9.68,2.28-.51,1.86-1.06,4.39-1.65,7.6-.59,3.21-1.08,6.77-1.46,10.7s-.57,7.95-.57,12.09.17,8.04.51,11.71c.06.63.12,1.23.18,1.84h-30.56v-47.09h-19.24v12.66h-26.45v-12.66h-19.37v65.44c0,4.64-.91,8.18-2.72,10.63-1.82,2.45-4.28,3.67-7.4,3.67-.59,0-1.52-.04-2.78-.13-1.27-.09-2.57-.13-3.92-.13l-.63,16.33c1.44.08,2.83.19,4.18.32,1.35.13,2.49.19,3.42.19,5.82,0,10.93-1.31,15.32-3.92,4.39-2.62,7.8-6.26,10.25-10.95,2.45-4.68,3.67-10.02,3.67-16.01v-36.07h26.45v34.3h148.09c6.58,0,12.74-1.05,18.48-3.16.6-.22,1.19-.45,1.77-.69.59.23,1.17.47,1.77.69,5.74,2.11,11.9,3.16,18.48,3.16h55.82v-88.98h-19.37v72.4ZM311.31,713.9c-.3-3.12-.44-6.08-.44-8.86,0-3.04.15-6.18.44-9.43.23-2.57.52-5.05.86-7.44,2.42-.23,4.89-.34,7.43-.34,3.97,0,7.07.46,9.3,1.39,2.23.93,3.8,2.53,4.68,4.81.89,2.28,1.33,5.49,1.33,9.62v14.94h-23.1c-.18-1.46-.35-3.02-.51-4.68ZM410.86,688.07c3.97,0,8.21.59,12.72,1.77,1.26.33,2.51.71,3.75,1.12-.25,1.59-.7,3.24-1.35,4.95-1.06,2.78-2.53,5.51-4.43,8.16-1.9,2.66-4.11,5.09-6.65,7.28-1.3,1.13-2.65,2.13-4.05,3.03-1.4-.89-2.75-1.9-4.05-3.03-2.53-2.19-4.75-4.62-6.65-7.28-1.9-2.66-3.38-5.38-4.43-8.16-.65-1.71-1.1-3.36-1.35-4.95,1.24-.42,2.49-.79,3.75-1.12,4.51-1.18,8.75-1.77,12.72-1.77Z"/>
      <rect class="cls-2" x="506.55" y="646.18" width="19.24" height="88.98"/>
    </g>
    <g>
      <path class="cls-2" d="M297.64,525.57c-63.92,0-124.01-24.89-169.2-70.09-45.2-45.2-70.09-105.29-70.09-169.2s24.89-124.01,70.09-169.2c45.2-45.2,105.29-70.09,169.2-70.09s124.01,24.89,169.2,70.09c45.2,45.2,70.09,105.29,70.09,169.2s-24.89,124.01-70.09,169.2c-45.2,45.2-105.29,70.09-169.2,70.09ZM297.64,63.78c-122.69,0-222.5,99.81-222.5,222.5s99.81,222.5,222.5,222.5h0c122.69,0,222.5-99.81,222.5-222.5S420.32,63.78,297.64,63.78Z"/>
      <g>
        <path class="cls-1" d="M312.12,221.93l39,39.01c11.29-4.55,24.17-4.88,36.02-.3l6.39-6.39-70.91-70.91c-4.25-4.25-4.37-11.16-.27-15.42,2.07-2.16,4.87-3.34,7.87-3.34s5.65,1.13,7.72,3.19l45.4,45.41c6.85,6.84,15.95,10.61,25.64,10.61s18.78-3.77,25.63-10.62c11.18-11.18,15.4-23.01,15.4-33.81s-3.93-19.9-9.29-26.91c-11.01-14.38-32.27-24.38-54.1-14.02l31.32,31.33c4.26,4.25,4.26,11.18,0,15.43-2.07,2.07-4.8,3.2-7.72,3.2s-5.66-1.13-7.72-3.19l-33.47-33.48h-.02s-2.1-2.09-2.1-2.09c-10.08-10.08-21.77-15.38-33.88-15.38-.44,0-.88,0-1.33.03-11.15.35-21.88,5.15-30.22,13.48-5.39,5.39-9.61,12.22-11.81,19.83l6.4,6.4c14.05,14.04,19.7,30.98,16.05,47.95Z"/>
        <path class="cls-1" d="M297.57,335.9c-.68-.8-1.4-1.57-2.15-2.32l-47.7-47.7h-41.76l66.66,66.66c4.45,4.45,4.6,11.68.33,16.1-2.16,2.25-5.07,3.48-8.19,3.48s-5.89-1.18-8.04-3.32l-38.76-38.76c-7.9-7.9-18.28-11.86-28.66-11.86s-20.76,3.95-28.66,11.86l-3.53,3.53c-7.66,7.66-11.87,17.83-11.87,28.66s4.21,21.01,11.87,28.66l69.15,69.16,24.42-24.42-66.71-66.7c-4.45-4.45-4.6-11.67-.34-16.1,2.17-2.26,5.07-3.49,8.19-3.49s5.89,1.18,8.04,3.33l38.23,38.22c13.72,13.72,34.91,15.52,50.6,5.42-4.21-7.24-6.61-15.63-6.61-24.58,0-13.9,5.7-26.72,15.47-35.83Z"/>
        <g>
          <path class="cls-2" d="M208.67,252.87l-31.32-31.33c-4.26-4.26-4.26-11.18,0-15.44,2.07-2.06,4.81-3.19,7.72-3.19s5.66,1.13,7.72,3.19l33.5,33.5v-.02s2.09,2.08,2.09,2.08c13.19,13.19,29.08,18.14,44.78,13.93,15.39-4.12,28.05-16.58,32.47-31.87.08-.28.16-.55.24-.83.23-.83.42-1.66.59-2.5.24-1.19.44-2.38.58-3.58,1.62-13.67-3.62-27.21-15.1-38.7l-3.64-3.64-2.6-2.6-2.52-2.52-56.86-56.86-24.54,24.55,70.91,70.91c4.25,4.25,4.37,11.17.28,15.42-2.08,2.16-4.88,3.34-7.87,3.34s-5.66-1.13-7.72-3.2l-45.4-45.4c-6.85-6.84-15.95-10.61-25.64-10.61s-18.79,3.77-25.63,10.61c-11.18,11.18-15.4,23.01-15.4,33.82s3.93,19.9,9.29,26.91c11.01,14.38,32.27,24.38,54.1,14.02Z"/>
          <polygon class="cls-2" points="211.02 280.01 241.53 280.01 226.27 264.48 211.02 280.01"/>
        </g>
        <g>
          <polygon class="cls-2" points="354.15 437.46 383.86 437.46 369.01 422.33 354.15 437.46"/>
          <path class="cls-2" d="M427.98,334.03l-10.96,39.81c-.74,2.75-2.52,5.07-5,6.5-2.49,1.44-5.37,1.82-8.15,1.07-.51-.13-1.02-.31-1.51-.53h-.07l-.5-.26s-.08-.04-.12-.06l-1.59-.82v-.21l-.46-.37c-.12-.1-.24-.21-.35-.33l-.02-.02c-.13-.11-.24-.23-.35-.35-.08-.08-.14-.15-.21-.23-.12-.13-.23-.25-.33-.39-1.59-1.91-2.45-4.33-2.45-6.81,0-.94.12-1.87.37-2.79l11.29-40.98v-.43l.24-.41,4.89-18.22c.64-16.13-7.62-31.13-21.6-39.21-.86-.5-1.74-.97-2.62-1.4-.95-.46-1.91-.89-2.88-1.28-1.02-.41-2.03-.77-3.06-1.09-8.89-2.82-18.3-2.61-26.83.27-1.02.34-2.02.71-3.01,1.13h0c-.97.4-1.9.84-2.83,1.32-7.21,3.66-13.48,9.38-17.82,16.88-3.91,6.78-5.89,14.36-5.79,22.09l39.6-10.55c.7-.18,1.42-.3,2.14-.34.37-.03.74-.03,1.08,0,4.69.17,8.71,3.37,9.94,7.95.24.94.37,1.9.37,2.85-.03,4.82-3.31,9.06-7.97,10.32l-43,11.45h-.08l-16.26,4.36c-2.28,1.13-4.43,2.43-6.44,3.9-.8.58-1.57,1.18-2.33,1.81-.76.64-1.49,1.3-2.21,1.99-8.29,7.99-13.11,19.07-13.11,31.07,0,7.62,1.98,14.79,5.46,21.02.49.87,1,1.72,1.55,2.55.53.82,1.09,1.63,1.69,2.42,7.89,10.47,20.44,17.25,34.54,17.25,7.84,0,15.41-2.07,22.06-6.04l-30.67-31.36c-4.16-4.16-4.16-10.98.03-15.17.85-.85,1.82-1.54,2.91-2.07l.24-.14.17-.04c1.34-.59,2.8-.89,4.27-.89,2.87,0,5.57,1.12,7.6,3.15l30.76,31.45.45-.63,2.36,3.39c.18.24.35.5.54.74l9.24,9.24c13.83,10.15,32.34,11.17,47.21,2.59,20.65-11.92,27.75-38.42,15.83-59.08-3.92-6.79-9.5-12.29-16.25-16.08Z"/>
        </g>
      </g>
    </g>
  </g>
</svg>