<?xml version="1.0" encoding="UTF-8"?>
<svg id="Layer_1" data-name="Layer 1" xmlns="http://www.w3.org/2000/svg" viewBox="0 0 478.58 478.58">
  <defs>
    <style>
      .cls-1 {
        fill: #e5625e;
      }

      .cls-2 {
        fill: #fff;
      }
    </style>
  </defs>
  <path class="cls-2" d="M239.29,478.58c-63.92,0-124.01-24.89-169.2-70.09C24.89,363.3,0,303.21,0,239.29S24.89,115.28,70.09,70.09C115.28,24.89,175.37,0,239.29,0s124.01,24.89,169.2,70.09c45.2,45.2,70.09,105.29,70.09,169.2s-24.89,124.01-70.09,169.2c-45.2,45.2-105.29,70.09-169.2,70.09ZM239.29,16.79C116.6,16.79,16.79,116.61,16.79,239.29s99.81,222.5,222.5,222.5h0c122.69,0,222.5-99.81,222.5-222.5S361.98,16.79,239.29,16.79Z"/>
  <g>
    <path class="cls-1" d="M253.78,174.94l39,39.01c11.29-4.55,24.17-4.88,36.02-.3l6.39-6.39-70.91-70.91c-4.25-4.25-4.37-11.16-.27-15.42,2.07-2.16,4.87-3.34,7.87-3.34s5.65,1.13,7.72,3.19l45.4,45.41c6.85,6.84,15.95,10.61,25.64,10.61s18.78-3.77,25.63-10.62c11.18-11.18,15.4-23.01,15.4-33.81s-3.93-19.9-9.29-26.91c-11.01-14.38-32.27-24.38-54.1-14.02l31.32,31.33c4.26,4.25,4.26,11.18,0,15.43-2.07,2.07-4.8,3.2-7.72,3.2s-5.66-1.13-7.72-3.19l-33.47-33.48h-.02s-2.1-2.09-2.1-2.09c-10.08-10.08-21.77-15.38-33.88-15.38-.44,0-.88,0-1.33.03-11.15.35-21.88,5.15-30.22,13.48-5.39,5.39-9.61,12.22-11.81,19.83l6.4,6.4c14.05,14.04,19.7,30.98,16.05,47.95Z"/>
    <path class="cls-1" d="M239.23,288.92c-.68-.8-1.4-1.57-2.15-2.32l-47.7-47.7h-41.76l66.66,66.66c4.45,4.45,4.6,11.68.33,16.1-2.16,2.25-5.07,3.48-8.19,3.48s-5.89-1.18-8.04-3.32l-38.76-38.76c-7.9-7.9-18.28-11.86-28.66-11.86s-20.76,3.95-28.66,11.86l-3.53,3.53c-7.66,7.66-11.87,17.83-11.87,28.66s4.21,21.01,11.87,28.66l69.15,69.16,24.42-24.42-66.71-66.7c-4.45-4.45-4.6-11.67-.34-16.1,2.17-2.26,5.07-3.49,8.19-3.49s5.89,1.18,8.04,3.33l38.23,38.22c13.72,13.72,34.91,15.52,50.6,5.42-4.21-7.24-6.61-15.63-6.61-24.58,0-13.9,5.7-26.72,15.47-35.83Z"/>
    <g>
      <path class="cls-2" d="M150.32,205.89l-31.32-31.33c-4.26-4.26-4.26-11.18,0-15.44,2.07-2.06,4.81-3.19,7.72-3.19s5.66,1.13,7.72,3.19l33.5,33.5v-.02s2.09,2.08,2.09,2.08c13.19,13.19,29.08,18.14,44.78,13.93,15.39-4.12,28.05-16.58,32.47-31.87.08-.28.16-.55.24-.83.23-.83.42-1.66.59-2.5.24-1.19.44-2.38.58-3.58,1.62-13.67-3.62-27.21-15.1-38.7l-3.64-3.64-2.6-2.6-2.52-2.52-56.86-56.86-24.54,24.55,70.91,70.91c4.25,4.25,4.37,11.17.28,15.42-2.08,2.16-4.88,3.34-7.87,3.34s-5.66-1.13-7.72-3.2l-45.4-45.4c-6.85-6.84-15.95-10.61-25.64-10.61s-18.79,3.77-25.63,10.61c-11.18,11.18-15.4,23.01-15.4,33.82s3.93,19.9,9.29,26.91c11.01,14.38,32.27,24.38,54.1,14.02Z"/>
      <polygon class="cls-2" points="152.67 233.02 183.18 233.02 167.92 217.49 152.67 233.02"/>
    </g>
    <g>
      <polygon class="cls-2" points="295.8 390.47 325.51 390.47 310.66 375.35 295.8 390.47"/>
      <path class="cls-2" d="M369.63,287.05l-10.96,39.81c-.74,2.75-2.52,5.07-5,6.5-2.49,1.44-5.37,1.82-8.15,1.07-.51-.13-1.02-.31-1.51-.53h-.07l-.5-.26s-.08-.04-.12-.06l-1.59-.82v-.21l-.46-.37c-.12-.1-.24-.21-.35-.33l-.02-.02c-.13-.11-.24-.23-.35-.35-.08-.08-.14-.15-.21-.23-.12-.13-.23-.25-.33-.39-1.59-1.91-2.45-4.33-2.45-6.81,0-.94.12-1.87.37-2.79l11.29-40.98v-.43l.24-.41,4.89-18.22c.64-16.13-7.62-31.13-21.6-39.21-.86-.5-1.74-.97-2.62-1.4-.95-.46-1.91-.89-2.88-1.28-1.02-.41-2.03-.77-3.06-1.09-8.89-2.82-18.3-2.61-26.83.27-1.02.34-2.02.71-3.01,1.13h0c-.97.4-1.9.84-2.83,1.32-7.21,3.66-13.48,9.38-17.82,16.88-3.91,6.78-5.89,14.36-5.79,22.09l39.6-10.55c.7-.18,1.42-.3,2.14-.34.37-.03.74-.03,1.08,0,4.69.17,8.71,3.37,9.94,7.95.24.94.37,1.9.37,2.85-.03,4.82-3.31,9.06-7.97,10.32l-43,11.45h-.08l-16.26,4.36c-2.28,1.13-4.43,2.43-6.44,3.9-.8.58-1.57,1.18-2.33,1.81-.76.64-1.49,1.3-2.21,1.99-8.29,7.99-13.11,19.07-13.11,31.07,0,7.62,1.98,14.79,5.46,21.02.49.87,1,1.72,1.55,2.55.53.82,1.09,1.63,1.69,2.42,7.89,10.47,20.44,17.25,34.54,17.25,7.84,0,15.41-2.07,22.06-6.04l-30.67-31.36c-4.16-4.16-4.16-10.98.03-15.17.85-.85,1.82-1.54,2.91-2.07l.24-.14.17-.04c1.34-.59,2.8-.89,4.27-.89,2.87,0,5.57,1.12,7.6,3.15l30.76,31.45.45-.63,2.36,3.39c.18.24.35.5.54.74l9.24,9.24c13.83,10.15,32.34,11.17,47.21,2.59,20.65-11.92,27.75-38.42,15.83-59.08-3.92-6.79-9.5-12.29-16.25-16.08Z"/>
    </g>
  </g>
</svg>